<?xml version="1.0" encoding="utf-8"?>
<!-- Generator: Adobe Illustrator 27.5.0, SVG Export Plug-In . SVG Version: 6.00 Build 0)  -->
<svg version="1.1" id="Layer_1" xmlns="http://www.w3.org/2000/svg" xmlns:xlink="http://www.w3.org/1999/xlink" x="0px" y="0px"
	 viewBox="0 0 64 64" style="enable-background:new 0 0 64 64;" xml:space="preserve">
<style type="text/css">
	.st0{fill:#FFFFFF;}
</style>
<rect y="0" width="64" height="64"/>
<g>
	<g>
		<path class="st0" d="M12.33,53.2v-4.27h3.22c0.93,0,1.39-0.48,1.39-1.44V19.94h4.94v28.51c0,1.44-0.42,2.59-1.25,3.46
			c-0.83,0.86-2,1.3-3.5,1.3H12.33z M19.43,16.72c-0.96,0-1.77-0.31-2.42-0.94c-0.66-0.62-0.98-1.43-0.98-2.42
			c0-0.99,0.33-1.8,0.98-2.42c0.66-0.62,1.46-0.94,2.42-0.94c0.99,0,1.81,0.31,2.45,0.94c0.64,0.62,0.96,1.43,0.96,2.42
			c0,0.99-0.32,1.8-0.96,2.42C21.24,16.41,20.42,16.72,19.43,16.72z"/>
		<path class="st0" d="M41.27,44.27c-2.4,0-4.5-0.5-6.29-1.51c-1.79-1.01-3.19-2.43-4.2-4.27c-1.01-1.84-1.51-3.98-1.51-6.41V31.5
			c0-2.46,0.5-4.62,1.49-6.46c0.99-1.84,2.38-3.26,4.15-4.27c1.78-1.01,3.83-1.51,6.17-1.51c2.27,0,4.26,0.5,5.98,1.51
			c1.71,1.01,3.05,2.41,4.01,4.2c0.96,1.79,1.44,3.89,1.44,6.29v1.87H34.31c0.06,2.08,0.76,3.74,2.09,4.97
			c1.33,1.23,2.98,1.85,4.97,1.85c1.86,0,3.26-0.42,4.2-1.25c0.94-0.83,1.67-1.79,2.18-2.88l4.08,2.11c-0.45,0.9-1.1,1.84-1.94,2.83
			c-0.85,0.99-1.96,1.82-3.34,2.5C45.18,43.94,43.42,44.27,41.27,44.27z M34.36,29.34h13.11c-0.13-1.79-0.77-3.19-1.92-4.2
			c-1.15-1.01-2.66-1.51-4.51-1.51s-3.37,0.5-4.54,1.51C35.33,26.15,34.62,27.55,34.36,29.34z"/>
	</g>
</g>
</svg>
