<?xml version="1.0" encoding="utf-8"?>
<!-- Generator: Adobe Illustrator 27.5.0, SVG Export Plug-In . SVG Version: 6.00 Build 0)  -->
<svg version="1.1" id="Layer_1" xmlns="http://www.w3.org/2000/svg" xmlns:xlink="http://www.w3.org/1999/xlink" x="0px" y="0px"
	 viewBox="0 0 64 64" style="enable-background:new 0 0 64 64;" xml:space="preserve">
<style type="text/css">
	.st0{fill:#FFFFFF;}
</style>
<rect y="0" width="64" height="64"/>
<g>
	<g>
		<path class="st0" d="M7.91,59v-5.34h4.02c1.16,0,1.74-0.6,1.74-1.8V17.42h6.18v35.64c0,1.8-0.52,3.24-1.56,4.32
			c-1.04,1.08-2.5,1.62-4.38,1.62H7.91z M16.79,13.4c-1.2,0-2.21-0.39-3.03-1.17c-0.82-0.78-1.23-1.79-1.23-3.03
			c0-1.24,0.41-2.25,1.23-3.03C14.58,5.39,15.59,5,16.79,5c1.24,0,2.26,0.39,3.06,1.17c0.8,0.78,1.2,1.79,1.2,3.03
			c0,1.24-0.4,2.25-1.2,3.03C19.05,13.01,18.03,13.4,16.79,13.4z"/>
		<path class="st0" d="M44.09,47.84c-3,0-5.62-0.63-7.86-1.89c-2.24-1.26-3.99-3.04-5.25-5.34c-1.26-2.3-1.89-4.97-1.89-8.01v-0.72
			c0-3.08,0.62-5.77,1.86-8.07c1.24-2.3,2.97-4.08,5.19-5.34c2.22-1.26,4.79-1.89,7.71-1.89c2.84,0,5.33,0.63,7.47,1.89
			c2.14,1.26,3.81,3.01,5.01,5.25c1.2,2.24,1.8,4.86,1.8,7.86v2.34H35.39c0.08,2.6,0.95,4.67,2.61,6.21
			c1.66,1.54,3.73,2.31,6.21,2.31c2.32,0,4.07-0.52,5.25-1.56c1.18-1.04,2.09-2.24,2.73-3.6l5.1,2.64c-0.56,1.12-1.37,2.3-2.43,3.54
			c-1.06,1.24-2.45,2.28-4.17,3.12S46.77,47.84,44.09,47.84z M35.45,29.18h16.38c-0.16-2.24-0.96-3.99-2.4-5.25
			c-1.44-1.26-3.32-1.89-5.64-1.89s-4.21,0.63-5.67,1.89C36.66,25.19,35.77,26.94,35.45,29.18z"/>
	</g>
</g>
</svg>
