<?xml version="1.0" encoding="utf-8"?>
<!-- Generator: Adobe Illustrator 27.5.0, SVG Export Plug-In . SVG Version: 6.00 Build 0)  -->
<svg version="1.1" id="Layer_1" xmlns="http://www.w3.org/2000/svg" xmlns:xlink="http://www.w3.org/1999/xlink" x="0px" y="0px"
	 viewBox="0 0 221 32" style="enable-background:new 0 0 221 32;" xml:space="preserve">
<style type="text/css">
	.st0{fill:#FFFFFF;}
</style>
<g>
	<g>
		<path class="st0" d="M0.52,30.85V27.4h2.15c0.61,0,0.91-0.32,0.91-0.96V8.58H7.7v18.69c0,1.09-0.33,1.96-0.98,2.61
			c-0.65,0.65-1.52,0.98-2.61,0.98H0.52z M5.65,6.72c-0.74,0-1.37-0.23-1.88-0.7C3.26,5.55,3,4.93,3,4.16s0.26-1.39,0.77-1.86
			c0.51-0.47,1.14-0.7,1.88-0.7c0.76,0,1.39,0.24,1.89,0.7c0.5,0.47,0.75,1.09,0.75,1.86S8.04,5.55,7.54,6.02
			C7.04,6.49,6.41,6.72,5.65,6.72z"/>
		<path class="st0" d="M19.16,24.9c-1.61,0-3.06-0.32-4.34-0.96c-1.28-0.64-2.3-1.57-3.04-2.78c-0.74-1.22-1.11-2.68-1.11-4.38
			v-0.51c0-1.71,0.37-3.17,1.11-4.38c0.74-1.22,1.75-2.14,3.04-2.78c1.28-0.64,2.73-0.96,4.34-0.96c1.61,0,3.06,0.32,4.34,0.96
			c1.28,0.64,2.3,1.57,3.04,2.78c0.74,1.22,1.11,2.68,1.11,4.38v0.51c0,1.71-0.37,3.17-1.11,4.38c-0.74,1.22-1.75,2.14-3.04,2.78
			C22.22,24.58,20.77,24.9,19.16,24.9z M19.16,21.32c1.26,0,2.31-0.4,3.13-1.2s1.24-1.95,1.24-3.44v-0.32
			c0-1.49-0.41-2.64-1.22-3.44c-0.82-0.8-1.87-1.2-3.15-1.2c-1.26,0-2.31,0.4-3.13,1.2c-0.83,0.8-1.24,1.95-1.24,3.44v0.32
			c0,1.49,0.41,2.64,1.24,3.44C16.86,20.92,17.9,21.32,19.16,21.32z"/>
		<path class="st0" d="M30.62,24.45V2.05h4.11v8.48h0.59c0.17-0.34,0.45-0.68,0.82-1.02s0.87-0.62,1.49-0.85S39.04,8.32,40,8.32
			c1.26,0,2.37,0.28,3.31,0.85c0.95,0.57,1.68,1.34,2.2,2.34c0.52,0.99,0.78,2.15,0.78,3.47v9.47h-4.11V15.3
			c0-1.19-0.3-2.09-0.9-2.69c-0.6-0.6-1.45-0.9-2.56-0.9c-1.26,0-2.24,0.41-2.94,1.23c-0.7,0.82-1.04,1.97-1.04,3.44v8.06H30.62z"/>
		<path class="st0" d="M49.92,24.45V8.58h4.05v2.08h0.59c0.26-0.55,0.75-1.08,1.47-1.58c0.72-0.5,1.81-0.75,3.27-0.75
			c1.26,0,2.37,0.28,3.31,0.85c0.95,0.57,1.68,1.34,2.2,2.34c0.52,0.99,0.78,2.15,0.78,3.47v9.47h-4.11V15.3
			c0-1.19-0.3-2.09-0.9-2.69c-0.6-0.6-1.45-0.9-2.56-0.9c-1.26,0-2.24,0.41-2.94,1.23c-0.7,0.82-1.04,1.97-1.04,3.44v8.06H49.92z"/>
		<path class="st0" d="M69.22,24.45V8.58h4.05v2.08h0.59c0.26-0.55,0.75-1.08,1.47-1.58c0.72-0.5,1.81-0.75,3.27-0.75
			c1.26,0,2.37,0.28,3.31,0.85c0.95,0.57,1.68,1.34,2.2,2.34c0.52,0.99,0.78,2.15,0.78,3.47v9.47h-4.11V15.3
			c0-1.19-0.3-2.09-0.9-2.69c-0.6-0.6-1.45-0.9-2.56-0.9c-1.26,0-2.24,0.41-2.94,1.23c-0.7,0.82-1.04,1.97-1.04,3.44v8.06H69.22z"/>
		<path class="st0" d="M90.28,30.85v-3.52h8.82c0.61,0,0.91-0.32,0.91-0.96v-4h-0.59c-0.17,0.36-0.45,0.73-0.82,1.09
			c-0.37,0.36-0.87,0.66-1.5,0.9s-1.44,0.35-2.42,0.35c-1.26,0-2.37-0.28-3.31-0.85c-0.95-0.57-1.68-1.35-2.2-2.35
			c-0.52-1-0.78-2.15-0.78-3.46V8.58h4.11v9.15c0,1.2,0.3,2.09,0.9,2.69c0.6,0.6,1.45,0.9,2.56,0.9c1.26,0,2.24-0.41,2.94-1.23
			c0.7-0.82,1.04-1.97,1.04-3.44V8.58h4.11v18.69c0,1.09-0.33,1.96-0.98,2.61c-0.65,0.65-1.52,0.98-2.61,0.98H90.28z"/>
		<path class="st0" d="M115.19,24.9c-1.61,0-3.03-0.34-4.26-1.01c-1.23-0.67-2.19-1.62-2.87-2.85c-0.69-1.23-1.03-2.67-1.03-4.34
			v-0.38c0-1.66,0.34-3.11,1.01-4.34c0.67-1.23,1.62-2.18,2.84-2.85s2.63-1.01,4.24-1.01c1.59,0,2.97,0.35,4.15,1.04
			c1.18,0.69,2.09,1.65,2.74,2.88c0.65,1.23,0.98,2.65,0.98,4.27v1.38h-11.79c0.04,1.09,0.46,1.97,1.24,2.66
			c0.78,0.68,1.74,1.02,2.87,1.02c1.15,0,2-0.25,2.55-0.74c0.54-0.49,0.96-1.04,1.24-1.63l3.36,1.73c-0.3,0.55-0.75,1.16-1.32,1.81
			c-0.58,0.65-1.34,1.21-2.3,1.66C117.89,24.67,116.67,24.9,115.19,24.9z M111.24,14.69h7.58c-0.09-0.92-0.46-1.65-1.13-2.21
			s-1.53-0.83-2.6-0.83c-1.11,0-1.99,0.28-2.65,0.83C111.8,13.04,111.39,13.77,111.24,14.69z"/>
		<path class="st0" d="M132.56,24.9c-2.11,0-3.84-0.45-5.19-1.34c-1.35-0.9-2.17-2.18-2.45-3.84l3.79-0.96
			c0.15,0.75,0.41,1.33,0.77,1.76c0.36,0.43,0.8,0.73,1.34,0.91c0.53,0.18,1.12,0.27,1.75,0.27c0.96,0,1.67-0.17,2.12-0.5
			c0.46-0.33,0.69-0.74,0.69-1.23c0-0.49-0.22-0.87-0.65-1.14c-0.44-0.27-1.13-0.49-2.09-0.66l-0.91-0.16
			c-1.13-0.21-2.17-0.51-3.1-0.88c-0.94-0.37-1.69-0.89-2.25-1.55c-0.57-0.66-0.85-1.51-0.85-2.56c0-1.58,0.59-2.79,1.76-3.63
			c1.17-0.84,2.72-1.26,4.64-1.26c1.81,0,3.31,0.4,4.51,1.18c1.2,0.79,1.98,1.82,2.35,3.1l-3.82,1.15
			c-0.17-0.81-0.53-1.39-1.06-1.73s-1.19-0.51-1.97-0.51c-0.78,0-1.38,0.13-1.8,0.4c-0.41,0.27-0.62,0.64-0.62,1.1
			c0,0.51,0.22,0.89,0.65,1.14c0.44,0.25,1.02,0.43,1.76,0.56l0.91,0.16c1.22,0.21,2.32,0.5,3.31,0.85c0.99,0.35,1.77,0.85,2.35,1.5
			c0.58,0.65,0.87,1.53,0.87,2.64c0,1.66-0.62,2.95-1.84,3.86C136.28,24.45,134.63,24.9,132.56,24.9z"/>
		<path class="st0" d="M148.33,24.45c-1.07,0-1.93-0.33-2.6-0.98c-0.66-0.65-1-1.52-1-2.61v-8.96h-4.05V8.58h4.05V3.65h4.11v4.93
			h4.44v3.33h-4.44v8.26c0,0.64,0.3,0.96,0.91,0.96h3.13v3.33H148.33z"/>
		<path class="st0" d="M156.2,24.45V8.58h4.05v1.79h0.59c0.24-0.64,0.64-1.11,1.19-1.41c0.55-0.3,1.2-0.45,1.94-0.45h1.96v3.58
			h-2.02c-1.04,0-1.9,0.27-2.58,0.82s-1.01,1.38-1.01,2.51v9.02H156.2z"/>
		<path class="st0" d="M173.35,24.9c-1.15,0-2.19-0.2-3.1-0.59s-1.64-0.97-2.17-1.73c-0.53-0.76-0.8-1.68-0.8-2.77s0.27-2,0.8-2.74
			c0.53-0.74,1.27-1.29,2.22-1.66c0.95-0.37,2.03-0.56,3.25-0.56h4.44v-0.9c0-0.75-0.24-1.36-0.72-1.84
			c-0.48-0.48-1.24-0.72-2.29-0.72c-1.02,0-1.79,0.23-2.29,0.69c-0.5,0.46-0.83,1.05-0.98,1.78l-3.79-1.25
			c0.26-0.81,0.68-1.55,1.26-2.22c0.58-0.67,1.35-1.22,2.32-1.63s2.15-0.62,3.54-0.62c2.13,0,3.82,0.52,5.06,1.57
			c1.24,1.05,1.86,2.56,1.86,4.54v5.92c0,0.64,0.3,0.96,0.91,0.96h1.31v3.33h-2.74c-0.81,0-1.47-0.19-1.99-0.58s-0.78-0.9-0.78-1.54
			v-0.03h-0.62c-0.09,0.26-0.28,0.59-0.59,1.01c-0.31,0.42-0.78,0.78-1.44,1.1C175.37,24.74,174.48,24.9,173.35,24.9z M174.06,21.63
			c1.15,0,2.09-0.31,2.82-0.94s1.09-1.47,1.09-2.51v-0.32h-4.15c-0.76,0-1.36,0.16-1.8,0.48c-0.44,0.32-0.65,0.77-0.65,1.34
			c0,0.58,0.23,1.04,0.69,1.41C172.53,21.45,173.19,21.63,174.06,21.63z"/>
		<path class="st0" d="M192.9,24.9c-1.29,0-2.49-0.32-3.61-0.94s-2.02-1.55-2.69-2.77c-0.68-1.22-1.01-2.69-1.01-4.42v-0.51
			c0-1.73,0.34-3.2,1.01-4.42c0.67-1.22,1.57-2.14,2.68-2.77c1.11-0.63,2.32-0.94,3.62-0.94c0.98,0,1.8,0.11,2.46,0.34
			s1.2,0.51,1.62,0.85c0.41,0.34,0.73,0.7,0.95,1.09h0.59V2.05h4.11v22.4h-4.05v-1.92H198c-0.37,0.6-0.94,1.14-1.71,1.63
			S194.38,24.9,192.9,24.9z M194.14,21.38c1.26,0,2.32-0.4,3.17-1.2c0.85-0.8,1.27-1.97,1.27-3.5v-0.32c0-1.54-0.42-2.7-1.26-3.5
			c-0.84-0.8-1.9-1.2-3.18-1.2c-1.26,0-2.32,0.4-3.17,1.2c-0.85,0.8-1.27,1.97-1.27,3.5v0.32c0,1.54,0.42,2.7,1.27,3.5
			C191.83,20.98,192.88,21.38,194.14,21.38z"/>
		<path class="st0" d="M211.42,24.9c-1.15,0-2.19-0.2-3.1-0.59s-1.64-0.97-2.17-1.73c-0.53-0.76-0.8-1.68-0.8-2.77s0.27-2,0.8-2.74
			c0.53-0.74,1.27-1.29,2.22-1.66c0.95-0.37,2.03-0.56,3.25-0.56h4.44v-0.9c0-0.75-0.24-1.36-0.72-1.84
			c-0.48-0.48-1.24-0.72-2.29-0.72c-1.02,0-1.79,0.23-2.29,0.69c-0.5,0.46-0.83,1.05-0.98,1.78L206,12.61
			c0.26-0.81,0.68-1.55,1.26-2.22c0.58-0.67,1.35-1.22,2.32-1.63s2.15-0.62,3.54-0.62c2.13,0,3.82,0.52,5.06,1.57
			c1.24,1.05,1.86,2.56,1.86,4.54v5.92c0,0.64,0.3,0.96,0.91,0.96h1.31v3.33h-2.74c-0.81,0-1.47-0.19-1.99-0.58s-0.78-0.9-0.78-1.54
			v-0.03h-0.62c-0.09,0.26-0.28,0.59-0.59,1.01c-0.31,0.42-0.78,0.78-1.44,1.1C213.44,24.74,212.55,24.9,211.42,24.9z M212.14,21.63
			c1.15,0,2.09-0.31,2.82-0.94s1.09-1.47,1.09-2.51v-0.32h-4.15c-0.76,0-1.36,0.16-1.8,0.48c-0.44,0.32-0.65,0.77-0.65,1.34
			c0,0.58,0.23,1.04,0.69,1.41C210.6,21.45,211.26,21.63,212.14,21.63z"/>
	</g>
</g>
</svg>
